# xmcd
#
# Track frame offsets:
#	150
#	17249
#	45839
#	73255
#	91935
#	126061
#	149269
#	179623
#
# Disc length: 2777 seconds
#
# Revision: 0
# Processed by: cddbd v1.5PL3 Copyright (c) Steve Scherf et al.
# Submitted via: dBpowerAMP V4.0
#
DISCID=6b0ad708
DTITLE=Panetteria H - Puzzle
DYEAR=1900
DGENRE=Funk
TTITLE0=Aria
TTITLE1=Leterno indeciso
TTITLE2=Occhi in agguato
TTITLE3=Lascati trasportare
TTITLE4=Puzzle
TTITLE5=Variazioni in epoche remote
TTITLE6=Ombre
TTITLE7=Sussurrando in là
EXTD=Italy
EXTT0=
EXTT1=
EXTT2=
EXTT3=
EXTT4=
EXTT5=
EXTT6=
EXTT7=
PLAYORDER=
